<svg xmlns="http://www.w3.org/2000/svg" width="316" height="64.882"><g data-name="Group 16271"><text data-name="HW SCHOOL DISTRICT" transform="translate(74 41)" fill="#002147" font-size="24" font-family="SegoeUI, Segoe UI"><tspan x="0" y="0">HW SCHOOL DISTRICT</tspan></text><g data-name="Group 16270"><path data-name="Path 11596" d="M.026 25.585c0-8.149.019-16.3-.026-24.451C0 .207.211-.004 1.135 0q31.861.044 63.721 0c.927 0 1.138.208 1.134 1.134q-.044 31.3 0 62.613c0 .927-.208 1.138-1.134 1.135q-31.861-.044-63.721 0c-.927 0-1.138-.208-1.134-1.135.041-9.384.026-18.771.026-28.159.182.007.367.015.549.019 2.113 12.813 9.569 20.992 21.748 25.074.222 1.216.934.8 1.616.489l.567.048c-.011.686.189 1.212.964 1.335a42.011 42.011 0 0013.28.256 25.7 25.7 0 0010.474-4.093 28.688 28.688 0 004.646-3.289 35.416 35.416 0 007.719-11.475 30.526 30.526 0 001.435-18.912c-1.78-7.641-6.436-13.525-12.665-18.2-.56-.419-.975-.6-1.157.3l-.489-.267c.267-1.068-.386-.931-1.038-.79a32.814 32.814 0 00-11.7-4.631c-.241-.7-.623-.76-1.131-.248-7.319-.678-14.248.452-20.521 4.5A30.513 30.513 0 00.7 25.567a18.7 18.7 0 01-.674.018z" fill="#fbf9f9"/><path data-name="Path 11597" d="M.026 25.586c.226 0 .456-.007.682-.015a79.519 79.519 0 00-.133 10.036c-.182-.007-.367-.015-.549-.019V25.586z" fill="#bbb5b5"/><path data-name="Path 11598" d="M.574 35.611a79.527 79.527 0 01.133-10.036A30.513 30.513 0 0114.329 5.713c6.273-4.049 13.2-5.183 20.521-4.5a.957.957 0 001.131.248 32.747 32.747 0 0111.7 4.631 1.59 1.59 0 001.038.79l.489.267a7.035 7.035 0 00.7.816c9.491 8.249 12.687 18.575 10.148 30.784-2.243 10.8-12.68 20.651-23.606 22.427a45.988 45.988 0 01-11.942.056l-.567-.048a1.916 1.916 0 00-1.616-.489C10.144 56.603 2.688 48.42.574 35.611zm29.927 24.4A28.7 28.7 0 0059.16 31.43a28.591 28.591 0 00-57.181-.126c-.05 16.063 12.606 28.368 28.523 28.702z" fill="#862229"/><path data-name="Path 11599" d="M24.51 61.222a45.986 45.986 0 0011.942-.056c10.922-1.776 21.359-11.627 23.606-22.427 2.54-12.209-.656-22.534-10.148-30.784a7.037 7.037 0 01-.7-.816c.182-.9.6-.716 1.157-.3 6.232 4.671 10.885 10.555 12.665 18.2a30.526 30.526 0 01-1.435 18.912 35.457 35.457 0 01-7.719 11.475 28.694 28.694 0 01-4.646 3.289 25.7 25.7 0 01-10.474 4.093 42.116 42.116 0 01-13.28-.256c-.782-.121-.977-.644-.968-1.33z" fill="#bbb5b5"/><path data-name="Path 11600" d="M22.323 60.685a1.916 1.916 0 011.617.489c-.679.308-1.395.727-1.617-.489z" fill="#bbb5b5"/><path data-name="Path 11601" d="M35.982 1.457a.957.957 0 01-1.131-.248c.5-.512.886-.453 1.131.248z" fill="#bbb5b5"/><path data-name="Path 11602" d="M48.717 6.874a1.579 1.579 0 01-1.038-.79c.653-.14 1.3-.278 1.038.79z" fill="#bbb5b5"/><path data-name="Path 11603" d="M30.502 60.007C14.589 59.677 1.924 47.372 1.98 31.3a28.591 28.591 0 0157.181.126 28.708 28.708 0 01-28.659 28.581zM42.84 24.092c-.857-.567-.645-1.264-.552-1.817a313.955 313.955 0 011.572-8.505c.193-.982 1.268-2.1.682-2.825-.6-.745-2.013-.786-2.985-1.3-1.5-.786-2.158-.3-2.614 1.235a49.369 49.369 0 00-2.187 12.153c-.048 1.294-.371 1.846-1.809 1.783a93.297 93.297 0 00-8.512 0c-1.513.074-1.932-.534-1.972-1.869a42.435 42.435 0 00-1.654-10.192c-1.068-3.8-1.02-3.711-4.79-2.532-1.594.5-1.557 1.149-1.064 2.469 1.353 3.607 1.609 7.415 2.009 11.441-.493-.3-.767-.371-.882-.549-.478-.716-.9-1.464-1.353-2.2-2.054-3.4-2.017-3.352-5.131-1.049-1.075.793-1.264 1.294-.382 2.421a52.277 52.277 0 016.347 10.6 5.6 5.6 0 01.727 2.588c-.145 3.37-1.439 6.41-2.677 9.458-.834 2.058-.9 2.028 1.283 2.729a9.942 9.942 0 011.387.5c1.1.538 2.106.779 2.807-.934a10.35 10.35 0 01.3 3.641c-.015.415-.148 1.057.386 1.086a21.043 21.043 0 004.783-.019c.816-.137.768-1.42 1.042-2.21a79.273 79.273 0 012.9-8.068 2.436 2.436 0 01.86 1.405c.908 2.68 1.843 5.354 2.7 8.053.245.764.575 1.212 1.413 1.075 1.461-.237 3.1.612 4.375-.645.185-.182.093-.719.03-1.072a7.726 7.726 0 01.374-3.385c.419 1.909 1.435 1.654 2.643 1.086a16 16 0 012.61-.912c.908-.245 1-.634.56-1.442a25.56 25.56 0 01-2.073-5.328c-.856-3.022-1.724-5.962.271-9.02 1.542-2.362 2.755-4.946 4.36-7.285 2.295-3.344 2.262-3.3-.9-5.869-.982-.8-1.361-.6-1.906.4-.902 1.656-1.947 3.232-2.978 4.904z" fill="#fbf9f9"/><path data-name="Path 11604" d="M42.844 24.092c1.027-1.672 2.073-3.248 2.977-4.9.545-1 .923-1.2 1.906-.4 3.166 2.573 3.2 2.525.9 5.869-1.605 2.339-2.818 4.924-4.36 7.285-2 3.055-1.131 6-.271 9.02a25.351 25.351 0 002.072 5.328c.441.808.349 1.194-.56 1.442a15.659 15.659 0 00-2.61.912c-1.209.567-2.225.823-2.643-1.086a7.723 7.723 0 00-.374 3.385c.063.356.156.89-.03 1.071-1.275 1.261-2.91.408-4.375.645-.838.137-1.168-.311-1.413-1.075-.856-2.7-1.794-5.372-2.7-8.053a2.387 2.387 0 00-.86-1.405 78.388 78.388 0 00-2.9 8.068c-.274.79-.23 2.073-1.042 2.21a21.04 21.04 0 01-4.783.019c-.534-.033-.4-.671-.386-1.086a10.267 10.267 0 00-.3-3.641c-.7 1.713-1.709 1.472-2.807.934a10.437 10.437 0 00-1.387-.5c-2.187-.7-2.121-.671-1.283-2.729 1.238-3.048 2.532-6.088 2.677-9.458a5.607 5.607 0 00-.727-2.588 52.109 52.109 0 00-6.347-10.6c-.882-1.127-.693-1.628.382-2.421 3.114-2.3 3.074-2.354 5.131 1.049.445.738.875 1.487 1.353 2.2.119.178.389.252.882.549-.4-4.03-.656-7.834-2.009-11.441-.493-1.316-.534-1.969 1.064-2.469 3.767-1.179 3.722-1.272 4.79 2.532a42.438 42.438 0 011.654 10.192c.041 1.335.46 1.943 1.972 1.869a90.526 90.526 0 018.513 0c1.438.063 1.761-.489 1.809-1.783a49.37 49.37 0 012.187-12.153c.452-1.531 1.109-2.021 2.614-1.235.971.508 2.384.552 2.985 1.3.586.727-.489 1.846-.682 2.825a313.955 313.955 0 00-1.572 8.505c-.092.55-.3 1.247.553 1.814zm-12.379 6.744l.122.041.122-.041c1.531 2.655 3.059 5.313 4.712 8.183a8.966 8.966 0 01.571-1.524c1.238-1.913.823-3.993.7-6.062-.048-.808-.378-1.068-1.135-1.053-1.6.033-3.2.019-4.8.026h-.36c-1.535-.007-3.074.007-4.608-.03-.742-.019-1.049.241-1.2 1.02a8.986 8.986 0 001.409 7.4c1.552-2.747 3.009-5.354 4.466-7.96z" fill="#862229"/><path data-name="Path 11605" d="M30.767 30.409c1.6-.007 3.2.007 4.8-.026.756-.015 1.09.241 1.135 1.053.119 2.069.538 4.149-.7 6.062a8.962 8.962 0 00-.571 1.524c-1.654-2.873-3.185-5.528-4.712-8.182.013-.146.031-.286.048-.431z" fill="#fbf9f9"/><path data-name="Path 11606" d="M30.465 30.836l-4.453 7.96a8.983 8.983 0 01-1.409-7.4c.145-.779.452-1.034 1.2-1.02 1.535.037 3.074.022 4.608.03.017.148.032.289.054.43z" fill="#fbf9f9"/><path data-name="Path 11607" d="M30.465 30.835a62.067 62.067 0 00-.056-.426h.36l-.056.43-.122.041z" fill="#bbb5b5"/></g></g></svg>