<svg xmlns="http://www.w3.org/2000/svg" width="36" height="36"><path data-name="Icon awesome-medal" d="M15.732 9.193l-4.861-8.1A2.25 2.25 0 008.942 0H1.127a1.125 1.125 0 00-.922 1.77l7.824 11.177a14.552 14.552 0 017.703-3.754zM34.873 0h-7.815a2.25 2.25 0 00-1.929 1.093l-4.861 8.1a14.556 14.556 0 017.7 3.753L35.795 1.77A1.125 1.125 0 0034.873 0zM18 11.25a12.375 12.375 0 1012.375 12.375A12.375 12.375 0 0018 11.25zm6.505 11.057l-2.667 2.6.631 3.672a.807.807 0 01-1.171.85L18 27.695l-3.3 1.733a.807.807 0 01-1.171-.85l.631-3.672-2.667-2.6a.808.808 0 01.446-1.377l3.686-.537 1.647-3.341a.809.809 0 011.449 0l1.647 3.341 3.686.537a.808.808 0 01.446 1.377z" fill="#fff"/></svg>